<svg width="49" height="48" viewBox="0 0 49 48" fill="none" xmlns="http://www.w3.org/2000/svg">
<path d="M22.9301 0.0100175L22.2001 0.0800175C15.3801 0.690017 9.00007 4.37002 4.95007 10.02C2.71586 13.125 1.26471 16.7237 0.720069 20.51C0.53486 21.667 0.461188 22.839 0.500069 24.01C0.500069 25.79 0.520069 26.18 0.720069 27.5C1.51014 32.8137 4.05294 37.7111 7.94463 41.4143C11.8363 45.1176 16.8538 47.4144 22.2001 47.94C22.9301 48.02 26.0701 48.02 26.8001 47.94C29.8163 47.6453 32.7504 46.7871 35.4501 45.41C35.8501 45.21 35.9401 45.14 35.8801 45.1C35.8501 45.07 34.0801 42.7 31.9801 39.86L28.1401 34.67L23.3301 27.56C21.7316 25.1766 20.1182 22.8032 18.4901 20.44C18.4701 20.44 18.4501 23.6 18.4401 27.46C18.4201 34.22 18.4201 34.5 18.3401 34.66C18.2551 34.846 18.106 34.9951 17.9201 35.08C17.7701 35.16 17.6401 35.18 16.9301 35.18H16.1201L15.9001 35.03C15.7684 34.9462 15.6614 34.8288 15.5901 34.69L15.4901 34.49L15.5001 25.07L15.5201 15.67L15.6601 15.48C15.7401 15.38 15.9001 15.26 16.0101 15.19C16.2001 15.1 16.2801 15.09 17.0901 15.09C18.0401 15.09 18.2001 15.13 18.4501 15.4C18.5201 15.48 21.1301 19.4 24.2501 24.12L33.7101 38.46L37.5101 44.22L37.7101 44.09C39.4101 42.99 41.2101 41.41 42.6301 39.77C45.6546 36.3087 47.6164 32.0484 48.2801 27.5C48.4801 26.18 48.5001 25.8 48.5001 24C48.5001 22.22 48.4801 21.83 48.2801 20.51C47.4932 15.207 44.9606 10.3177 41.0829 6.61572C37.2052 2.91372 32.2039 0.610352 26.8701 0.0700175C26.4201 0.0300175 23.3201 -0.0299825 22.9301 0.0100175V0.0100175ZM32.7501 14.53C32.8624 14.5855 32.9626 14.6627 33.045 14.7571C33.1274 14.8515 33.1903 14.9612 33.2301 15.08C33.2601 15.2 33.2701 17.81 33.2601 23.69V32.13L31.7601 29.85L30.2701 27.57V21.43C30.2701 17.47 30.2901 15.24 30.3201 15.13C30.3533 15.0059 30.4112 14.8897 30.4902 14.7884C30.5692 14.687 30.6678 14.6026 30.7801 14.54C30.9801 14.44 31.0401 14.44 31.7801 14.44C32.4801 14.44 32.6001 14.44 32.7501 14.53V14.53Z" fill="white"/>
</svg>
